{"accessors" : [{"bufferView" : 0, "byteOffset" : 0, "componentType" : 5123, "count" : 618, "type" : "SCALAR", "max" : [119], "min" : [0]}, {"bufferView" : 1, "byteOffset" : 0, "componentType" : 5126, "count" : 120, "type" : "VEC3", "max" : [0.05201376602053642, 1.7433274984359741, 0.10786747932434082], "min" : [0.012671781703829765, 1.7040457725524902, 0.08831478655338287], "name" : "POSITION"}, {"bufferView" : 1, "byteOffset" : 12, "componentType" : 5126, "count" : 120, "type" : "VEC2", "max" : [0.9646214246749878, 1.9818061590194702], "min" : [0.019903719425201416, 1.0209906101226807], "name" : "TEXCOORD_0"}, {"bufferView" : 1, "byteOffset" : 20, "componentType" : 5126, "count" : 120, "type" : "VEC3", "max" : [0.9406006932258606, 0.9512309432029724, 1.0000042915344238], "min" : [-0.9471116065979004, -0.9485120177268982, -1.0000042915344238], "name" : "NORMAL"}, {"bufferView" : 0, "byteOffset" : 1236, "componentType" : 5123, "count" : 618, "type" : "SCALAR", "max" : [119], "min" : [0]}, {"bufferView" : 2, "byteOffset" : 0, "componentType" : 5126, "count" : 120, "type" : "VEC3", "max" : [-0.012948521412909031, 1.7433674335479736, 0.10786750912666321], "min" : [-0.05213409662246704, 1.7040047645568848, 0.08831481635570526], "name" : "POSITION"}, {"bufferView" : 2, "byteOffset" : 12, "componentType" : 5126, "count" : 120, "type" : "VEC2", "max" : [0.9585750699043274, 1.966354489326477], "min" : [0.006885886192321777, 1.022762417793274], "name" : "TEXCOORD_0"}, {"bufferView" : 2, "byteOffset" : 20, "componentType" : 5126, "count" : 120, "type" : "VEC3", "max" : [0.9310468435287476, 0.9478710293769836, 1.0000042915344238], "min" : [-0.9491647481918335, -0.9364743232727051, -1.0000042915344238], "name" : "NORMAL"}, {"bufferView" : 0, "byteOffset" : 2472, "componentType" : 5123, "count" : 12282, "type" : "SCALAR", "max" : [2161], "min" : [0]}, {"bufferView" : 3, "byteOffset" : 0, "componentType" : 5126, "count" : 2162, "type" : "VEC3", "max" : [0.09579431265592575, 1.8330844640731812, 0.14199267327785492], "min" : [-0.09610731154680252, 1.5206061601638794, -0.08657769858837128], "name" : "POSITION"}, {"bufferView" : 3, "byteOffset" : 12, "componentType" : 5126, "count" : 2162, "type" : "VEC2", "max" : [0.9943000078201294, 1.9807000160217285], "min" : [0.004999999888241291, 1.004349946975708], "name" : "TEXCOORD_0"}, {"bufferView" : 3, "byteOffset" : 20, "componentType" : 5126, "count" : 2162, "type" : "VEC3", "max" : [0.9992218613624573, 0.9998693466186523, 0.9999847412109375], "min" : [-0.9992175102233887, -0.9999938011169434, -0.9999959468841553], "name" : "NORMAL"}, {"bufferView" : 0, "byteOffset" : 27036, "componentType" : 5123, "count" : 300, "type" : "SCALAR", "max" : [83], "min" : [0]}, {"bufferView" : 4, "byteOffset" : 0, "componentType" : 5126, "count" : 84, "type" : "VEC3", "max" : [0.028556954115629196, 1.675146460533142, 0.12406665086746216], "min" : [-0.028556954115629196, 1.6401152610778809, 0.055999502539634705], "name" : "POSITION"}, {"bufferView" : 4, "byteOffset" : 12, "componentType" : 5126, "count" : 84, "type" : "VEC2", "max" : [0.9808249473571777, 1.9832134246826172], "min" : [0.051069796085357666, 1.028295874595642], "name" : "TEXCOORD_0"}, {"bufferView" : 4, "byteOffset" : 20, "componentType" : 5126, "count" : 84, "type" : "VEC3", "max" : [0.9971882700920105, 0.8775893449783325, 0.9974808692932129], "min" : [-0.9971882700920105, -0.9858413934707642, -0.7650182843208313], "name" : "NORMAL"}, {"bufferView" : 0, "byteOffset" : 27636, "componentType" : 5123, "count" : 3855, "type" : "SCALAR", "max" : [681], "min" : [0]}, {"bufferView" : 5, "byteOffset" : 0, "componentType" : 5126, "count" : 682, "type" : "VEC3", "max" : [0.08744799345731735, 1.8655582666397095, 0.1253442019224167], "min" : [-0.0877370685338974, 1.6476949453353882, -0.08673360198736191], "name" : "POSITION"}, {"bufferView" : 5, "byteOffset" : 12, "componentType" : 5126, "count" : 682, "type" : "VEC3", "max" : [0.9991875290870667, 0.9995692372322083, 0.9994125366210938], "min" : [-0.9996511936187744, -0.9979611039161682, -0.999446451663971], "name" : "NORMAL"}, {"bufferView" : 5, "byteOffset" : 24, "componentType" : 5126, "count" : 682, "type" : "VEC2", "max" : [0.999500036239624, 1.999500036239624], "min" : [0.0005000000237487257, 1.0759217739105225], "name" : "TEXCOORD_0"}, {"bufferView" : 0, "byteOffset" : 35348, "componentType" : 5123, "count" : 5022, "type" : "SCALAR", "max" : [1107], "min" : [0]}, {"bufferView" : 6, "byteOffset" : 0, "componentType" : 5126, "count" : 1108, "type" : "VEC3", "max" : [0.5314635038375854, 1.1030899286270142, 0.14859214425086975], "min" : [-0.5314705967903137, 0.06424117088317871, -0.10406744480133057], "name" : "POSITION"}, {"bufferView" : 6, "byteOffset" : 12, "componentType" : 5126, "count" : 1108, "type" : "VEC3", "max" : [0.9990524053573608, 0.8005262613296509, 0.9933851361274719], "min" : [-0.9990530014038086, -0.9900115132331848, -0.9930083751678467], "name" : "NORMAL"}, {"bufferView" : 6, "byteOffset" : 24, "componentType" : 5126, "count" : 1108, "type" : "VEC4", "max" : [0.9997003674507141, 0.9990332126617432, 0.9992393851280212, 1], "min" : [-0.9964958429336548, -0.9887939095497131, -0.9998924136161804, 1], "name" : "TANGENT"}, {"bufferView" : 6, "byteOffset" : 40, "componentType" : 5126, "count" : 1108, "type" : "VEC2", "max" : [0.9857610464096069, 1.9892195463180542], "min" : [0.018731044605374336, 1.0793609619140625], "name" : "TEXCOORD_0"}, {"bufferView" : 0, "byteOffset" : 45392, "componentType" : 5123, "count" : 3183, "type" : "SCALAR", "max" : [636], "min" : [0]}, {"bufferView" : 7, "byteOffset" : 0, "componentType" : 5126, "count" : 637, "type" : "VEC3", "max" : [0.19669286906719208, 1.073263168334961, 0.135578453540802], "min" : [-0.19601228833198547, 0.19393394887447357, -0.1236712709069252], "name" : "POSITION"}, {"bufferView" : 7, "byteOffset" : 12, "componentType" : 5126, "count" : 637, "type" : "VEC3", "max" : [0.99992835521698, 0.6503220200538635, 0.999135434627533], "min" : [-0.9999286532402039, -0.9999528527259827, -0.9999939203262329], "name" : "NORMAL"}, {"bufferView" : 7, "byteOffset" : 24, "componentType" : 5126, "count" : 637, "type" : "VEC4", "max" : [0.9999869465827942, 0.6244168877601624, 1.0000022649765015, 1], "min" : [-0.9939438700675964, -0.5765154957771301, -1.000002145767212, 1], "name" : "TANGENT"}, {"bufferView" : 7, "byteOffset" : 40, "componentType" : 5126, "count" : 637, "type" : "VEC2", "max" : [0.9872713088989258, 1.993969440460205], "min" : [0.015709467232227325, 1.094397783279419], "name" : "TEXCOORD_0"}, {"bufferView" : 0, "byteOffset" : 51760, "componentType" : 5123, "count" : 3966, "type" : "SCALAR", "max" : [983], "min" : [0]}, {"bufferView" : 8, "byteOffset" : 0, "componentType" : 5126, "count" : 984, "type" : "VEC3", "max" : [0.23703338205814362, 0.18304884433746338, 0.24138063192367554], "min" : [-0.23703888058662415, 0.0007621034746989608, -0.12956245243549347], "name" : "POSITION"}, {"bufferView" : 8, "byteOffset" : 12, "componentType" : 5126, "count" : 984, "type" : "VEC3", "max" : [0.9999168515205383, 0.9974513053894043, 0.9951024055480957], "min" : [-0.9999164342880249, -1.0000044107437134, -0.9961774945259094], "name" : "NORMAL"}, {"bufferView" : 8, "byteOffset" : 24, "componentType" : 5126, "count" : 984, "type" : "VEC4", "max" : [0.9999467730522156, 0.8955745100975037, 0.9980344176292419, 1], "min" : [-0.9993343949317932, -0.9999600052833557, -0.9223737120628357, -1], "name" : "TANGENT"}, {"bufferView" : 8, "byteOffset" : 40, "componentType" : 5126, "count" : 984, "type" : "VEC2", "max" : [0.9763879776000977, 1.9864959716796875], "min" : [0.009003999643027782, 1.0123169422149658], "name" : "TEXCOORD_0"}, {"bufferView" : 0, "byteOffset" : 59692, "componentType" : 5123, "count" : 7722, "type" : "SCALAR", "max" : [1509], "min" : [0]}, {"bufferView" : 9, "byteOffset" : 0, "componentType" : 5126, "count" : 1510, "type" : "VEC3", "max" : [0.46988755464553833, 1.6521693468093872, 0.16343297064304352], "min" : [-0.4703596234321594, 1.002012848854065, -0.20412492752075195], "name" : "POSITION"}, {"bufferView" : 9, "byteOffset" : 12, "componentType" : 5126, "count" : 1510, "type" : "VEC3", "max" : [0.9998718500137329, 0.9818815588951111, 0.9998990297317505], "min" : [-0.9999059438705444, -0.9939301013946533, -0.9998037219047546], "name" : "NORMAL"}, {"bufferView" : 9, "byteOffset" : 24, "componentType" : 5126, "count" : 1510, "type" : "VEC4", "max" : [1.0000001192092896, 0.8541935682296753, 0.9988598227500916, 1], "min" : [-1.0000042915344238, -0.8054600358009338, -0.9990207552909851, -1], "name" : "TANGENT"}, {"bufferView" : 9, "byteOffset" : 40, "componentType" : 5126, "count" : 1510, "type" : "VEC2", "max" : [0.9807490706443787, 1.9795656204223633], "min" : [0.021974602714180946, 1.0285882949829102], "name" : "TEXCOORD_0"}], "asset" : {"generator" : "Aspose.3D 24.9.0", "version" : "2.0"}, "buffers" : [{"uri" : "data:application/octet-stream;base64,", "byteLength" : 380024}], "bufferViews" : [{"buffer" : 0, "byteOffset" : 0, "byteLength" : 75136, "target" : 34963}, {"buffer" : 0, "byteOffset" : 75140, "byteLength" : 3840, "byteStride" : 32, "target" : 34962}, {"buffer" : 0, "byteOffset" : 78984, "byteLength" : 3840, "byteStride" : 32, "target" : 34962}, {"buffer" : 0, "byteOffset" : 82828, "byteLength" : 69184, "byteStride" : 32, "target" : 34962}, {"buffer" : 0, "byteOffset" : 152016, "byteLength" : 2688, "byteStride" : 32, "target" : 34962}, {"buffer" : 0, "byteOffset" : 154708, "byteLength" : 21824, "byteStride" : 32, "target" : 34962}, {"buffer" : 0, "byteOffset" : 176536, "byteLength" : 53184, "byteStride" : 48, "target" : 34962}, {"buffer" : 0, "byteOffset" : 229724, "byteLength" : 30576, "byteStride" : 48, "target" : 34962}, {"buffer" : 0, "byteOffset" : 260304, "byteLength" : 47232, "byteStride" : 48, "target" : 34962}, {"buffer" : 0, "byteOffset" : 307540, "byteLength" : 72480, "byteStride" : 48, "target" : 34962}], "images" : [{"uri" : "data:image/jpeg;base64,"}, {"uri" : "data:image/jpeg;base64,"}, {"uri" : "data:image/jpeg;base64,"}, {"uri" : "data:image/jpeg;base64,"}, {"uri" : "data:image/jpeg;base64,"}, {"uri" : "data:image/jpeg;base64,"}, {"uri" : "data:image/jpeg;base64,"}, {"uri" : "data:image/jpeg;base64,"}, {"uri" : "data:image/jpeg;base64,"}, {"uri" : "data:image/jpeg;base64,"}, {"uri" : "data:image/jpeg;base64,"}, {"uri" : "data:image/jpeg;base64,"}, {"uri" : "data:image/jpeg;base64,"}, {"uri" : "data:image/jpeg;base64,"}, {"uri" : "data:image/jpeg;base64,"}, {"uri" : "data:image/jpeg;base64,"}], "materials" : [{"name" : "Wolf3D_Eye", "pbrMetallicRoughness" : {"baseColorFactor" : [1, 1, 1, 1], "baseColorTexture" : {"index" : 0, "texCoord" : 0}, "metallicFactor" : 0, "roughnessFactor" : 1}, "emissiveFactor" : [0, 0, 0], "alphaMode" : "OPAQUE", "doubleSided" : false}, {"name" : "Wolf3D_Eye", "pbrMetallicRoughness" : {"baseColorFactor" : [1, 1, 1, 1], "baseColorTexture" : {"index" : 0, "texCoord" : 0}, "metallicFactor" : 0, "roughnessFactor" : 1}, "emissiveFactor" : [0, 0, 0], "alphaMode" : "OPAQUE", "doubleSided" : false}, {"name" : "Wolf3D_Skin", "pbrMetallicRoughness" : {"baseColorFactor" : [1, 1, 1, 1], "baseColorTexture" : {"index" : 1, "texCoord" : 0}, "metallicFactor" : 0, "roughnessFactor" : 0.699999988079071}, "emissiveFactor" : [0, 0, 0], "alphaMode" : "OPAQUE", "doubleSided" : false}, {"name" : "Wolf3D_Teeth", "pbrMetallicRoughness" : {"baseColorFactor" : [1, 1, 1, 1], "baseColorTexture" : {"index" : 2, "texCoord" : 0}, "metallicFactor" : 0, "roughnessFactor" : 1}, "emissiveFactor" : [0, 0, 0], "alphaMode" : "OPAQUE", "doubleSided" : true}, {"name" : "Wolf3D_Hair", "pbrMetallicRoughness" : {"baseColorFactor" : [1, 1, 1, 1], "baseColorTexture" : {"index" : 4, "texCoord" : 0}, "metallicFactor" : 0, "roughnessFactor" : 0.858578622341156}, "normalTexture" : {"index" : 3, "texCoord" : 0, "scale" : 1}, "emissiveFactor" : [0, 0, 0], "alphaMode" : "OPAQUE", "doubleSided" : false}, {"name" : "Wolf3D_Body", "pbrMetallicRoughness" : {"baseColorFactor" : [1, 1, 1, 1], "baseColorTexture" : {"index" : 6, "texCoord" : 0}, "metallicFactor" : 0, "roughnessFactor" : 0.6982409358024597}, "normalTexture" : {"index" : 5, "texCoord" : 0, "scale" : 1}, "emissiveFactor" : [0, 0, 0], "alphaMode" : "OPAQUE", "doubleSided" : false}, {"name" : "Wolf3D_Outfit_Bottom", "pbrMetallicRoughness" : {"baseColorFactor" : [1, 1, 1, 1], "baseColorTexture" : {"index" : 8, "texCoord" : 0}, "metallicFactor" : 0, "roughnessFactor" : 1, "metallicRoughnessTexture" : {"index" : 9, "texCoord" : 0}}, "normalTexture" : {"index" : 7, "texCoord" : 0, "scale" : 1}, "emissiveFactor" : [0, 0, 0], "alphaMode" : "OPAQUE", "doubleSided" : false}, {"name" : "Wolf3D_Outfit_Footwear", "pbrMetallicRoughness" : {"baseColorFactor" : [1, 1, 1, 1], "baseColorTexture" : {"index" : 11, "texCoord" : 0}, "metallicFactor" : 1, "roughnessFactor" : 1, "metallicRoughnessTexture" : {"index" : 12, "texCoord" : 0}}, "normalTexture" : {"index" : 10, "texCoord" : 0, "scale" : 1}, "emissiveFactor" : [0, 0, 0], "alphaMode" : "OPAQUE", "doubleSided" : false}, {"name" : "Wolf3D_Outfit_Top", "pbrMetallicRoughness" : {"baseColorFactor" : [1, 1, 1, 1], "baseColorTexture" : {"index" : 14, "texCoord" : 0}, "metallicFactor" : 1, "roughnessFactor" : 1, "metallicRoughnessTexture" : {"index" : 15, "texCoord" : 0}}, "normalTexture" : {"index" : 13, "texCoord" : 0, "scale" : 1}, "emissiveFactor" : [0, 0, 0], "alphaMode" : "OPAQUE", "doubleSided" : false}], "meshes" : [{"primitives" : [{"attributes" : {"POSITION" : 1, "TEXCOORD_0" : 2, "NORMAL" : 3}, "indices" : 0, "material" : 0, "mode" : 4}]}, {"primitives" : [{"attributes" : {"POSITION" : 5, "TEXCOORD_0" : 6, "NORMAL" : 7}, "indices" : 4, "material" : 1, "mode" : 4}]}, {"primitives" : [{"attributes" : {"POSITION" : 9, "TEXCOORD_0" : 10, "NORMAL" : 11}, "indices" : 8, "material" : 2, "mode" : 4}]}, {"primitives" : [{"attributes" : {"POSITION" : 13, "TEXCOORD_0" : 14, "NORMAL" : 15}, "indices" : 12, "material" : 3, "mode" : 4}]}, {"primitives" : [{"attributes" : {"POSITION" : 17, "NORMAL" : 18, "TEXCOORD_0" : 19}, "indices" : 16, "material" : 4, "mode" : 4}]}, {"primitives" : [{"attributes" : {"POSITION" : 21, "NORMAL" : 22, "TANGENT" : 23, "TEXCOORD_0" : 24}, "indices" : 20, "material" : 5, "mode" : 4}]}, {"primitives" : [{"attributes" : {"POSITION" : 26, "NORMAL" : 27, "TANGENT" : 28, "TEXCOORD_0" : 29}, "indices" : 25, "material" : 6, "mode" : 4}]}, {"primitives" : [{"attributes" : {"POSITION" : 31, "NORMAL" : 32, "TANGENT" : 33, "TEXCOORD_0" : 34}, "indices" : 30, "material" : 7, "mode" : 4}]}, {"primitives" : [{"attributes" : {"POSITION" : 36, "NORMAL" : 37, "TANGENT" : 38, "TEXCOORD_0" : 39}, "indices" : 35, "material" : 8, "mode" : 4}]}], "nodes" : [{"mesh" : 0, "name" : "EyeLeft"}, {"mesh" : 1, "name" : "EyeRight"}, {"mesh" : 2, "name" : "Wolf3D_Head"}, {"mesh" : 3, "name" : "Wolf3D_Teeth"}, {"mesh" : 4, "name" : "Wolf3D_Hair"}, {"mesh" : 5, "name" : "Wolf3D_Body"}, {"mesh" : 6, "name" : "Wolf3D_Outfit_Bottom"}, {"mesh" : 7, "name" : "Wolf3D_Outfit_Footwear"}, {"mesh" : 8, "name" : "Wolf3D_Outfit_Top"}, {"children" : [0, 1, 2, 3, 4, 5, 6, 7, 8], "name" : "Armature"}], "samplers" : [{"magFilter" : 9728, "minFilter" : 9728, "wrapS" : 10497, "wrapT" : 10497}, {"magFilter" : 9728, "minFilter" : 9728, "wrapS" : 10497, "wrapT" : 10497}, {"magFilter" : 9729, "minFilter" : 9987, "wrapS" : 10497, "wrapT" : 10497}, {"magFilter" : 9729, "minFilter" : 9987, "wrapS" : 10497, "wrapT" : 10497}, {"magFilter" : 9728, "minFilter" : 9728, "wrapS" : 10497, "wrapT" : 10497}, {"magFilter" : 9729, "minFilter" : 9987, "wrapS" : 10497, "wrapT" : 10497}, {"magFilter" : 9728, "minFilter" : 9728, "wrapS" : 10497, "wrapT" : 10497}, {"magFilter" : 9729, "minFilter" : 9987, "wrapS" : 10497, "wrapT" : 10497}, {"magFilter" : 9729, "minFilter" : 9987, "wrapS" : 10497, "wrapT" : 10497}, {"magFilter" : 9729, "minFilter" : 9987, "wrapS" : 10497, "wrapT" : 10497}, {"magFilter" : 9729, "minFilter" : 9987, "wrapS" : 10497, "wrapT" : 10497}, {"magFilter" : 9729, "minFilter" : 9987, "wrapS" : 10497, "wrapT" : 10497}, {"magFilter" : 9729, "minFilter" : 9987, "wrapS" : 10497, "wrapT" : 10497}, {"magFilter" : 9729, "minFilter" : 9987, "wrapS" : 10497, "wrapT" : 10497}, {"magFilter" : 9729, "minFilter" : 9987, "wrapS" : 10497, "wrapT" : 10497}, {"magFilter" : 9729, "minFilter" : 9987, "wrapS" : 10497, "wrapT" : 10497}], "scene" : 0, "scenes" : [{"nodes" : [9]}], "textures" : [{"sampler" : 0, "source" : 0, "name" : ""}, {"sampler" : 1, "source" : 1, "name" : ""}, {"sampler" : 2, "source" : 2, "name" : ""}, {"sampler" : 3, "source" : 3, "name" : ""}, {"sampler" : 4, "source" : 4, "name" : ""}, {"sampler" : 5, "source" : 5, "name" : ""}, {"sampler" : 6, "source" : 6, "name" : ""}, {"sampler" : 7, "source" : 7, "name" : ""}, {"sampler" : 8, "source" : 8, "name" : ""}, {"sampler" : 9, "source" : 9, "name" : ""}, {"sampler" : 10, "source" : 10, "name" : ""}, {"sampler" : 11, "source" : 11, "name" : ""}, {"sampler" : 12, "source" : 12, "name" : ""}, {"sampler" : 13, "source" : 13, "name" : ""}, {"sampler" : 14, "source" : 14, "name" : ""}, {"sampler" : 15, "source" : 15, "name" : ""}]}